<?xml version="1.0" encoding="UTF-8"?>
<svg width="16" height="16" viewBox="0 0 16 16" fill="none" xmlns="http://www.w3.org/2000/svg">
  <path d="M6.667 8.667C7.047 9.107 7.523 9.451 8.059 9.669C8.595 9.887 9.175 9.974 9.752 9.923C10.33 9.872 10.888 9.685 11.384 9.377C11.88 9.068 12.3 8.647 12.613 8.147L14.28 5.647C14.842 4.815 15.053 3.797 14.868 2.815C14.683 1.833 14.117 0.968 13.3 0.407C12.483 -0.154 11.479 -0.368 10.51 -0.18C9.542 0.007 8.687 0.579 8.133 1.413L7.227 2.767" stroke="#a195e6" stroke-width="1.5" stroke-linecap="round" stroke-linejoin="round"/>
  <path d="M9.333 7.333C8.954 6.893 8.477 6.549 7.941 6.331C7.405 6.113 6.825 6.026 6.248 6.077C5.67 6.128 5.112 6.315 4.616 6.623C4.12 6.932 3.7 7.353 3.387 7.853L1.72 10.353C1.158 11.185 0.946 12.203 1.132 13.185C1.317 14.167 1.883 15.032 2.7 15.593C3.517 16.154 4.522 16.368 5.49 16.18C6.458 15.993 7.313 15.421 7.867 14.587L8.767 13.24" stroke="#a195e6" stroke-width="1.5" stroke-linecap="round" stroke-linejoin="round"/>
</svg> 