<?xml version="1.0" encoding="UTF-8"?>
<svg width="100" height="100" viewBox="0 0 100 100" xmlns="http://www.w3.org/2000/svg">
  <defs>
    <pattern id="ribbon-pattern" patternUnits="userSpaceOnUse" width="100" height="100">
      <!-- 中心标准红丝带图案 -->
      <path d="M45,25 C40,30 40,40 45,45 L43,55 L50,65 L57,55 L55,45 C60,40 60,30 55,25 C52.5,22.5 47.5,22.5 45,25 Z" 
            fill="#e91e63" fill-opacity="0.1" stroke="#e91e63" stroke-width="1.5" opacity="0.3"/>
      
      <!-- 左上角小红丝带 -->
      <path d="M15,15 C12,18 12,22 15,25 L14,30 L17.5,35 L21,30 L20,25 C23,22 23,18 20,15 C18.5,13.5 16.5,13.5 15,15 Z" 
            fill="#e91e63" fill-opacity="0.05" stroke="#e91e63" stroke-width="0.8" opacity="0.15"/>
      
      <!-- 右下角小红丝带 -->
      <path d="M75,65 C72,68 72,72 75,75 L74,80 L77.5,85 L81,80 L80,75 C83,72 83,68 80,65 C78.5,63.5 76.5,63.5 75,65 Z" 
            fill="#e91e63" fill-opacity="0.05" stroke="#e91e63" stroke-width="0.8" opacity="0.15"/>
    </pattern>
  </defs>
  <rect width="100%" height="100%" fill="url(#ribbon-pattern)" />
</svg> 