<?xml version="1.0" encoding="UTF-8"?>
<svg width="100" height="100" viewBox="0 0 100 100" xmlns="http://www.w3.org/2000/svg">
  <defs>
    <pattern id="ribbon-pattern" patternUnits="userSpaceOnUse" width="100" height="100">
      <!-- 标准红丝带图案 -->
      <path d="M40,30 C40,25 45,20 50,20 C55,20 60,25 60,30 C60,35 55,40 50,40 
               L50,60 L55,70 L45,70 L50,60 Z" 
            fill="none" stroke="#e91e63" stroke-width="1.5" opacity="0.15"/>
      
      <!-- 小红丝带图案 -->
      <path d="M15,75 C15,72 18,70 20,70 C22,70 25,72 25,75 C25,78 22,80 20,80
               L20,90 L22,95 L18,95 L20,90 Z" 
            fill="none" stroke="#e91e63" stroke-width="1" opacity="0.1"/>
      
      <!-- 小红丝带图案 -->
      <path d="M75,15 C75,12 78,10 80,10 C82,10 85,12 85,15 C85,18 82,20 80,20
               L80,30 L82,35 L78,35 L80,30 Z" 
            fill="none" stroke="#e91e63" stroke-width="1" opacity="0.1"/>
    </pattern>
  </defs>
  <rect width="100%" height="100%" fill="url(#ribbon-pattern)" />
</svg> 